<svg xmlns="http://www.w3.org/2000/svg" width="14" height="54" viewBox="0 0 14 54" fill="none">
  <path d="M13 6.42857C13 9.34823 10.3956 11.8571 7 11.8571C3.60442 11.8571 1 9.34823 1 6.42857C1 3.50892 3.60442 1 7 1C10.3956 1 13 3.50892 13 6.42857Z" fill="white" stroke="#A41939" stroke-width="2"/>
  <path d="M13 47.5714C13 50.4911 10.3956 53 7 53C3.60442 53 1 50.4911 1 47.5714C1 44.6518 3.60442 42.1429 7 42.1429C10.3956 42.1429 13 44.6518 13 47.5714Z" fill="white" stroke="#A41939" stroke-width="2"/>
  <path d="M13 27C13 29.9196 10.3956 32.4286 7 32.4286C3.60442 32.4286 1 29.9196 1 27C1 24.0803 3.60442 21.5714 7 21.5714C10.3956 21.5714 13 24.0803 13 27Z" fill="white" stroke="#A41939" stroke-width="2"/>
</svg>