<svg width="30" height="30" viewBox="0 0 30 30" fill="currentColor" xmlns="http://www.w3.org/2000/svg">
<g clip-path="url(#clip0_63_26)">
<path d="M15 1.875C12.4041 1.875 9.86654 2.64477 7.70815 4.08696C5.54975 5.52915 3.86749 7.579 2.87409 9.97728C1.88069 12.3756 1.62077 15.0146 2.1272 17.5606C2.63363 20.1066 3.88366 22.4452 5.71923 24.2808C7.55479 26.1163 9.89345 27.3664 12.4394 27.8728C14.9854 28.3792 17.6244 28.1193 20.0227 27.1259C22.421 26.1325 24.4709 24.4503 25.913 22.2919C27.3552 20.1335 28.125 17.5959 28.125 15C28.1244 11.5192 26.7414 8.1812 24.2801 5.71992C21.8188 3.25864 18.4808 1.87563 15 1.875ZM22.5 21C22.4988 21.3975 22.3404 21.7783 22.0594 22.0594C21.7783 22.3404 21.3975 22.4988 21 22.5H9.00001C8.60254 22.4988 8.22169 22.3404 7.94063 22.0594C7.65958 21.7783 7.50117 21.3975 7.50001 21V9C7.50116 8.60253 7.65956 8.22167 7.94062 7.94061C8.22167 7.65956 8.60254 7.50115 9.00001 7.5H21C21.3975 7.50115 21.7783 7.65956 22.0594 7.94061C22.3404 8.22167 22.4989 8.60253 22.5 9V21Z" fill="#A41939"/>
<path d="M11.2594 10.1249C11.1094 10.118 10.9596 10.1424 10.8195 10.1963C10.6794 10.2503 10.552 10.3328 10.4454 10.4385C10.3387 10.5443 10.2552 10.671 10.2001 10.8106C10.1449 10.9503 10.1194 11.0999 10.125 11.2499C10.1178 11.398 10.1413 11.5459 10.194 11.6845C10.2468 11.823 10.3277 11.9491 10.4317 12.0548C10.5356 12.1605 10.6603 12.2435 10.7979 12.2986C10.9355 12.3537 11.0831 12.3797 11.2313 12.3749H11.2406C11.5383 12.3763 11.8243 12.2596 12.0362 12.0505C12.248 11.8414 12.3683 11.5569 12.3708 11.2593C12.3733 10.9616 12.2577 10.6751 12.0494 10.4625C11.8411 10.2499 11.557 10.1285 11.2594 10.1249Z" fill="#A41939"/>
<path d="M17.3531 13.1249C16.9555 13.1083 16.561 13.2009 16.2123 13.3926C15.8636 13.5843 15.574 13.8678 15.375 14.2124V13.1249H13.125V19.8749H15.375V15.7781C15.3934 15.5071 15.5181 15.2544 15.7219 15.0749C15.9669 14.8933 16.2723 14.8128 16.575 14.8499C16.7948 14.8531 17.0092 14.9181 17.1938 15.0374C17.3749 15.2007 17.5138 15.4053 17.5987 15.6338C17.6836 15.8624 17.7119 16.1081 17.6813 16.3499V19.8749H19.875V16.0968C19.875 14.0624 18.7969 13.1249 17.3531 13.1249Z" fill="#A41939"/>
<path d="M12.375 13.125H10.125V19.875H12.375V13.125Z" fill="#A41939"/>
</g>
<defs>
<clipPath id="clip0_63_26">
<rect width="30" height="30" fill="white"/>
</clipPath>
</defs>
</svg>
