<svg xmlns="http://www.w3.org/2000/svg" width="465" height="502" viewBox="0 0 465 502" fill="currentColor">
  <path d="M415.491 458.206L381.553 492.143C375.491 498.174 357.741 501.987 357.21 501.987C249.775 502.892 146.341 460.708 70.328 384.677C-5.90298 308.46 -48.136 204.619 -46.964 96.872C-46.964 96.809 -43.073 79.56 -37.026 73.56L-3.08897 39.592C9.36403 27.155 33.206 21.53 49.909 27.092L57.065 29.498C73.768 35.06 91.22 53.497 95.845 70.465L112.938 133.182C117.578 150.182 111.344 174.368 98.907 186.805L76.22 209.492C98.47 291.959 163.139 356.613 245.559 378.894L268.246 356.206C280.684 343.768 304.933 337.55 321.933 342.175L384.651 359.3C401.588 363.894 420.025 381.33 425.619 398.048L427.994 405.204C433.552 421.926 427.928 445.769 415.491 458.206ZM240.996 245.993H272.995C272.995 210.65 244.34 181.995 208.997 181.995V213.994C226.636 213.994 240.996 228.368 240.996 245.993ZM368.992 245.993C368.992 157.62 297.369 85.997 208.997 85.997V117.997C279.588 117.997 336.993 175.433 336.993 245.993H368.992ZM208.997 -10V21.999C332.493 21.999 432.99 122.496 432.99 245.993H464.989C464.989 104.622 350.368 -10 208.997 -10Z" fill="#A41939"/>
</svg>