<svg xmlns="http://www.w3.org/2000/svg" width="26" height="20" viewBox="0 0 26 24" fill="none">
  <g clip-path="url(#clip0_32_47)">
    <path d="M13 24C12.8159 24.0008 12.6334 23.9681 12.4629 23.9037C12.2925 23.8394 12.1375 23.7447 12.0067 23.625L5.32795 17.46C4.27345 16.492 3.43873 15.3395 2.87265 14.07C2.30658 12.8006 2.02053 11.4396 2.03123 10.0669C2.02669 8.73777 2.30946 7.42119 2.86298 6.19421C3.41651 4.96724 4.22966 3.85453 5.25483 2.92124C7.32533 1.05381 10.1052 0.00830078 13 0.00830078C15.8948 0.00830078 18.6746 1.05381 20.7451 2.92124C21.7703 3.85453 22.5835 4.96724 23.137 6.19421C23.6905 7.42119 23.9733 8.73777 23.9687 10.0669C23.9794 11.4396 23.6934 12.8006 23.1273 14.07C22.5612 15.3395 21.7265 16.492 20.672 17.46L13.9933 23.6137C13.8635 23.7354 13.7089 23.8322 13.5385 23.8985C13.368 23.9648 13.185 23.9993 13 24ZM13 1.12499C10.4225 1.11951 7.94669 2.05266 6.10998 3.72187C5.20006 4.55112 4.47845 5.53957 3.98737 6.62937C3.49629 7.71917 3.2456 8.88843 3.24998 10.0687C3.24023 11.2931 3.49516 12.507 3.99985 13.6393C4.50454 14.7716 5.24884 15.7996 6.1892 16.6631L12.8659 22.8169C12.8832 22.8334 12.9038 22.8465 12.9267 22.8555C12.9495 22.8644 12.9741 22.869 12.999 22.869C13.0238 22.869 13.0484 22.8644 13.0712 22.8555C13.0941 22.8465 13.1148 22.8334 13.132 22.8169L19.8108 16.6631C20.7511 15.7996 21.4954 14.7716 22.0001 13.6393C22.5048 12.507 22.7597 11.2931 22.75 10.0687C22.7544 8.88843 22.5037 7.71917 22.0126 6.62937C21.5215 5.53957 20.7999 4.55112 19.89 3.72187C18.0533 2.05266 15.5775 1.11951 13 1.12499Z" fill="#1A3C4D"/>
    <path d="M13 15.2644C11.7197 15.2639 10.4793 14.8537 9.48988 14.1037C8.50047 13.3537 7.82329 12.3104 7.57366 11.1513C7.32403 9.9922 7.51739 8.78908 8.12081 7.74681C8.72424 6.70455 9.70041 5.88759 10.8831 5.43507C12.0657 4.98256 13.3818 4.92246 14.6071 5.26503C15.8323 5.60759 16.8911 6.33162 17.603 7.31382C18.3149 8.29603 18.636 9.47566 18.5115 10.6518C18.387 11.828 17.8247 12.928 16.9203 13.7644C16.406 14.2404 15.7949 14.6179 15.1222 14.8753C14.4494 15.1327 13.7282 15.2649 13 15.2644ZM13 6.17253C12.0011 6.174 11.0337 6.49506 10.2624 7.08103C9.49121 7.667 8.96389 8.48164 8.7703 9.38621C8.57671 10.2908 8.72881 11.2293 9.20071 12.042C9.67261 12.8546 10.4351 13.4912 11.3583 13.8431C12.2816 14.1951 13.3085 14.2408 14.2641 13.9724C15.2197 13.7039 16.045 13.138 16.5993 12.371C17.1536 11.6039 17.4028 10.6832 17.3042 9.76568C17.2057 8.84812 16.7657 7.99047 16.0591 7.33878C15.6574 6.96817 15.1804 6.67439 14.6554 6.47426C14.1305 6.27413 13.5679 6.17159 13 6.17253Z" fill="#1A3C4D"/>
  </g>
  <defs>
    <clipPath id="clip0_32_47">
      <rect width="26" height="24" fill="#1A3C4D"/>
    </clipPath>
  </defs>
</svg>